<svg xmlns="http://www.w3.org/2000/svg" viewBox="200 55 280 280" role="img" aria-label="GK favicon">
  <defs>
    <linearGradient id="tail1" x1="0%" y1="0%" x2="100%" y2="0%">
      <stop offset="0%" stop-color="#ffffff" stop-opacity="0" />
      <stop offset="100%" stop-color="#ffffff" stop-opacity="0.8" />
    </linearGradient>
    <linearGradient id="tail2" x1="0%" y1="0%" x2="100%" y2="0%">
      <stop offset="0%" stop-color="#c8d8ff" stop-opacity="0" />
      <stop offset="100%" stop-color="#c8d8ff" stop-opacity="0.7" />
    </linearGradient>
  </defs>

  <circle cx="340" cy="195" r="140" fill="#0f111a" />
  <circle cx="340" cy="195" r="140" fill="none" stroke="#2a2d3e" stroke-width="1.2" />
  <circle cx="340" cy="195" r="132" fill="none" stroke="#1a1d2e" stroke-width="0.5" />

  <g fill="#ffffff">
    <circle cx="230" cy="118" r="1.2" opacity="0.6" />
    <circle cx="210" cy="175" r="0.9" opacity="0.45" />
    <circle cx="218" cy="258" r="1.0" opacity="0.5" />
    <circle cx="260" cy="308" r="0.8" opacity="0.4" />
    <circle cx="340" cy="88" r="1.1" opacity="0.55" />
    <circle cx="420" cy="98" r="0.9" opacity="0.5" />
    <circle cx="455" cy="155" r="1.2" opacity="0.6" />
    <circle cx="462" cy="248" r="0.8" opacity="0.45" />
    <circle cx="418" cy="302" r="1.0" opacity="0.5" />
    <circle cx="340" cy="312" r="0.9" opacity="0.4" />
  </g>

  <g fill="#ffffff">
    <path d="M240,145 L241.5,150 L247,151.5 L241.5,153 L240,158 L238.5,153 L233,151.5 L238.5,150 Z" opacity="0.7" />
    <path d="M438,240 L439,244 L443,245 L439,246 L438,250 L437,246 L433,245 L437,244 Z" opacity="0.6" />
    <path d="M362,96 L363,99 L366,100 L363,101 L362,104 L361,101 L358,100 L361,99 Z" opacity="0.55" />
  </g>

  <line x1="408" y1="112" x2="446" y2="92" stroke="url(#tail1)" stroke-width="1.2" stroke-linecap="round" />
  <circle cx="406" cy="113" r="2" fill="#ffffff" opacity="0.9" />

  <line x1="262" y1="278" x2="300" y2="258" stroke="url(#tail2)" stroke-width="1" stroke-linecap="round" />
  <circle cx="260" cy="279" r="1.6" fill="#c8d8ff" opacity="0.85" />

  <g fill="none" stroke="#ffffff" stroke-width="14" stroke-linecap="round" stroke-linejoin="round">
    <path d="M318,148 A52,52 0 1,0 318,246" />
    <line x1="292" y1="197" x2="320" y2="197" />
  </g>

  <g fill="none" stroke="#e8eeff" stroke-width="14" stroke-linecap="round" stroke-linejoin="round">
    <line x1="354" y1="148" x2="354" y2="246" />
    <line x1="354" y1="197" x2="394" y2="148" />
    <line x1="354" y1="197" x2="394" y2="246" />
  </g>
</svg>
